<svg xmlns="http://www.w3.org/2000/svg" xmlns:xlink="http://www.w3.org/1999/xlink" width="287.209" height="56.105" viewBox="0 0 287.209 56.105"><defs><linearGradient id="a" x1="0.504" y1="0.685" x2="0.496" y2="0.315" gradientUnits="objectBoundingBox"><stop offset="0" stop-color="#be1c2e"/><stop offset="0.511" stop-color="#be1c2e"/><stop offset="0.549" stop-color="#f95c6d"/><stop offset="1" stop-color="#f95c6d"/></linearGradient></defs><g transform="translate(-85.207 -3.143)"><path d="M-114.75,3.8l-3.476-10.643-13.264.107-2.888,10L-145.5.053l14.441-49.473,11.071-.214L-103.732.16Zm-13.318-22.2h6.044l-3.156-9.788ZM-89.987.856-101.539.374l2.086-48.938,10.75-2.728L-72.979-25.3-74.37-49.473l11.606-.7,2.674,47.44L-70.84.642-88.7-28.935Zm42.894-.7h-5.937l.7-38.776h-4.118V-50.168H-41q.428,0,2.139.08a24.827,24.827,0,0,1,4.118.615,24.184,24.184,0,0,1,11.82,6.1A19.627,19.627,0,0,1-18.532-36.9a23.293,23.293,0,0,1,1.6,8.825,26.7,26.7,0,0,1-4.921,16.1,27.536,27.536,0,0,1-10.59,8.5,31.981,31.981,0,0,1-5.429,2.059q-2.647.722-4.68,1.07A32.843,32.843,0,0,1-45.836.08Zm6.365-38.776-.481,26.1q1.016-.267,2.032-.642a16.938,16.938,0,0,0,2.032-.909,15.11,15.11,0,0,0,6.5-5.589,15.84,15.84,0,0,0,2.113-8.424q0-4.6-2.46-7.06a9.786,9.786,0,0,0-2.781-1.872,17.173,17.173,0,0,0-3-1.043,18.874,18.874,0,0,0-2.54-.455Q-40.407-38.615-40.728-38.615ZM6.231-17.061a20.088,20.088,0,0,1-2.059.428q-1.043.16-2.113.267L2.487.321-9.066.642l-.428-16.687H-13.13V-27.651h3.316L-10.4-51.131l5.723-.214h1.123q1.07,0,2.781.08T3.1-50.97a41.933,41.933,0,0,1,4.466.7A27.76,27.76,0,0,1,17.3-46.531a13.936,13.936,0,0,1,6.685,10.215,15.728,15.728,0,0,1-.455,6.418A14.214,14.214,0,0,1,20.4-24.335a15.377,15.377,0,0,1-1.524,1.524,21.682,21.682,0,0,1-1.738,1.364L27.2-5.616,17.409.588ZM1.792-28.026A26.728,26.728,0,0,0,7.809-29.55a10.011,10.011,0,0,0,3.878-2.434,3.019,3.019,0,0,0,.749-1.284,4.361,4.361,0,0,0,.053-1.551,2.455,2.455,0,0,0-1.016-1.631,9.4,9.4,0,0,0-2.059-1.23,14.707,14.707,0,0,0-2.3-.8q-1.15-.294-1.738-.455-1.016-.214-2.006-.348t-1.9-.241ZM49.927,2.193A18.946,18.946,0,0,1,41.744.428,19.256,19.256,0,0,1,34.9-4.707a24.2,24.2,0,0,1-4.6-7.862A34.829,34.829,0,0,1,28.881-17.3a42.3,42.3,0,0,1-.829-5.268,32.672,32.672,0,0,1,1.123-12.569,25.839,25.839,0,0,1,5.669-10.215,21.148,21.148,0,0,1,7.006-5.161,20,20,0,0,1,8.344-1.792,13.945,13.945,0,0,1,5.963,1.391,18.68,18.68,0,0,1,5.536,4.065,23.25,23.25,0,0,1,3.316,4.2,31.98,31.98,0,0,1,2.514,5,32.383,32.383,0,0,1,2.086,12.462,38.617,38.617,0,0,1-1.5,10.028,31.1,31.1,0,0,1-3.958,8.638A21.754,21.754,0,0,1,57.629-.08,14.475,14.475,0,0,1,49.927,2.193ZM50.195-40.7A7.626,7.626,0,0,0,46.1-39.658a13.559,13.559,0,0,0-2.7,2.113,14.663,14.663,0,0,0-3.209,6.07,20.831,20.831,0,0,0-.588,7.782,26.1,26.1,0,0,0,1.364,6.632,15.14,15.14,0,0,0,2.647,4.76,8.119,8.119,0,0,0,6.311,2.888,4.132,4.132,0,0,0,2.086-.856A9.456,9.456,0,0,0,54.527-13a19.762,19.762,0,0,0,2.514-5.616A27.883,27.883,0,0,0,58.057-25.4a20.448,20.448,0,0,0-1.15-7.515,16.337,16.337,0,0,0-3.5-5.856,7.87,7.87,0,0,0-1.925-1.5A3.284,3.284,0,0,0,50.195-40.7Zm47.922,2.888-6.151-.214-1.23,26.314,6.044-.107L96.993-.267,73.407.107l-.16-11.553,5.883-.107,1.284-26.956-6.579-.267.481-11.606L98.6-49.366ZM111.541.16H105.6l.7-38.776h-4.118V-50.168h15.457q.428,0,2.139.08a24.827,24.827,0,0,1,4.118.615,24.184,24.184,0,0,1,11.82,6.1A19.627,19.627,0,0,1,140.1-36.9a23.293,23.293,0,0,1,1.6,8.825,26.7,26.7,0,0,1-4.921,16.1,27.536,27.536,0,0,1-10.59,8.5,31.981,31.981,0,0,1-5.429,2.059q-2.647.722-4.68,1.07A32.843,32.843,0,0,1,112.8.08Zm6.365-38.776-.481,26.1q1.016-.267,2.032-.642a16.938,16.938,0,0,0,2.032-.909,15.11,15.11,0,0,0,6.5-5.589,15.84,15.84,0,0,0,2.113-8.424q0-4.6-2.46-7.06a9.786,9.786,0,0,0-2.781-1.872,17.173,17.173,0,0,0-3-1.043,18.874,18.874,0,0,0-2.54-.455Q118.226-38.615,117.905-38.615Z" transform="translate(230.71 55.45)" fill="#fffaf2"/><path d="M115.96,59.247,112.484,48.6l-13.264.107-2.888,10L85.207,55.5,99.647,6.031l11.071-.214L126.978,55.61Zm-13.318-22.2h6.044l-3.156-9.788Zm38.081,19.254-11.553-.481,2.086-48.938,10.75-2.728,15.724,25.993L156.34,5.977l11.606-.7,2.674,47.44-10.75,3.369L142.007,26.515Zm42.894-.7h-5.937l.7-38.776h-4.118V5.282h15.457q.428,0,2.139.08a24.827,24.827,0,0,1,4.118.615,24.184,24.184,0,0,1,11.82,6.1,19.627,19.627,0,0,1,4.386,6.472,23.293,23.293,0,0,1,1.6,8.825,26.7,26.7,0,0,1-4.921,16.1,27.536,27.536,0,0,1-10.59,8.5,31.98,31.98,0,0,1-5.429,2.059q-2.647.722-4.68,1.07a32.844,32.844,0,0,1-3.289.428Zm6.365-38.776-.481,26.1q1.016-.267,2.032-.642a16.939,16.939,0,0,0,2.032-.909,15.111,15.111,0,0,0,6.5-5.589,15.84,15.84,0,0,0,2.113-8.424q0-4.6-2.46-7.06a9.786,9.786,0,0,0-2.781-1.872,17.173,17.173,0,0,0-3-1.043,18.875,18.875,0,0,0-2.54-.455Q190.3,16.835,189.982,16.835Zm46.959,21.554a20.088,20.088,0,0,1-2.059.428q-1.043.16-2.113.267l.428,16.687-11.553.321L221.217,39.4H217.58V27.8H220.9l-.588-23.479,5.723-.214h1.123q1.07,0,2.781.08t3.878.294a41.932,41.932,0,0,1,4.466.7,27.76,27.76,0,0,1,9.734,3.744A13.936,13.936,0,0,1,254.7,19.134a15.727,15.727,0,0,1-.455,6.418,14.214,14.214,0,0,1-3.129,5.562,15.377,15.377,0,0,1-1.524,1.524A21.683,21.683,0,0,1,247.852,34l10.055,15.831-9.788,6.2ZM232.5,27.424a26.728,26.728,0,0,0,6.017-1.524,10.011,10.011,0,0,0,3.878-2.434,3.018,3.018,0,0,0,.749-1.284,4.361,4.361,0,0,0,.053-1.551A2.455,2.455,0,0,0,242.182,19a9.4,9.4,0,0,0-2.059-1.23,14.707,14.707,0,0,0-2.3-.8q-1.15-.294-1.738-.455-1.016-.214-2.006-.348t-1.9-.241Zm48.136,30.218a18.946,18.946,0,0,1-8.183-1.765,19.257,19.257,0,0,1-6.846-5.134,24.2,24.2,0,0,1-4.6-7.862,34.829,34.829,0,0,1-1.417-4.733,42.3,42.3,0,0,1-.829-5.268,32.673,32.673,0,0,1,1.123-12.569A25.838,25.838,0,0,1,265.555,10.1a21.147,21.147,0,0,1,7.006-5.161A20,20,0,0,1,280.9,3.143a13.945,13.945,0,0,1,5.963,1.391A18.68,18.68,0,0,1,292.4,8.6a23.25,23.25,0,0,1,3.316,4.2,31.979,31.979,0,0,1,2.514,5,32.383,32.383,0,0,1,2.086,12.462,38.619,38.619,0,0,1-1.5,10.028,31.1,31.1,0,0,1-3.958,8.638,21.754,21.754,0,0,1-6.525,6.445A14.475,14.475,0,0,1,280.637,57.643Zm.267-42.894a7.626,7.626,0,0,0-4.092,1.043,13.559,13.559,0,0,0-2.7,2.113,14.664,14.664,0,0,0-3.209,6.07,20.831,20.831,0,0,0-.588,7.782,26.1,26.1,0,0,0,1.364,6.632,15.14,15.14,0,0,0,2.647,4.76,8.119,8.119,0,0,0,6.311,2.888,4.132,4.132,0,0,0,2.086-.856,9.456,9.456,0,0,0,2.514-2.728,19.762,19.762,0,0,0,2.514-5.616,27.883,27.883,0,0,0,1.016-6.792,20.448,20.448,0,0,0-1.15-7.515,16.337,16.337,0,0,0-3.5-5.856,7.87,7.87,0,0,0-1.925-1.5A3.284,3.284,0,0,0,280.9,14.749Zm47.922,2.888-6.151-.214-1.23,26.314,6.044-.107.214,11.553-23.586.374L303.956,44l5.883-.107,1.284-26.956-6.579-.267.481-11.606,24.282,1.016ZM342.251,55.61h-5.937l.7-38.776h-4.118V5.282h15.457q.428,0,2.139.08a24.828,24.828,0,0,1,4.118.615,24.184,24.184,0,0,1,11.82,6.1,19.626,19.626,0,0,1,4.386,6.472,23.293,23.293,0,0,1,1.6,8.825,26.7,26.7,0,0,1-4.921,16.1,27.536,27.536,0,0,1-10.59,8.5,31.981,31.981,0,0,1-5.429,2.059q-2.647.722-4.68,1.07a32.844,32.844,0,0,1-3.289.428Zm6.365-38.776-.481,26.1q1.016-.267,2.032-.642a16.936,16.936,0,0,0,2.032-.909,15.11,15.11,0,0,0,6.5-5.589,15.839,15.839,0,0,0,2.113-8.424q0-4.6-2.46-7.06a9.787,9.787,0,0,0-2.781-1.872,17.174,17.174,0,0,0-3-1.043,18.874,18.874,0,0,0-2.54-.455Q348.936,16.835,348.615,16.835Z" fill="url(#a)"/></g></svg>