<svg xmlns="http://www.w3.org/2000/svg" width="215.059" height="54.233" viewBox="0 0 215.059 54.233"><g transform="translate(-0.523 -1.015)"><path d="M-76.562-12.355-75.76-.8l-30.218,2.139-3.209-51.666,33.267,2.086-.749,11.606-20.163-1.337.535,8.45,15.885-2.46,1.765,11.446L-95.6-17.917l.428,6.9Zm4.493-8.45-.428-9.36,23.533-1.23.535,9.734Zm61.346,23L-13.184-22.2l-3.851,10-10.75.16-4.439-10.429L-33.4,1.391-44.953.8l2.46-49.205,11.125-1.925L-22.7-29.737l7.434-19.254,11.125,1.5L.776,1.07ZM34.631,3.8,31.154-6.846,17.89-6.739,15,3.263,3.878.053,18.318-49.419l11.071-.214L45.649.16ZM21.313-18.4h6.044L24.2-28.186ZM72.6-37.813l-6.151-.214-1.23,26.314,6.044-.107L71.481-.267,47.895.107l-.16-11.553,5.883-.107L54.9-38.508l-6.579-.267L48.8-50.382l24.282,1.016ZM76.723,1.6l3.423-52.04,11.553.749L89.185-11.178,104.8-12.622l1.07,11.553Z" transform="translate(109.711 51.45)" fill="#fff"/></g></svg>