<svg xmlns="http://www.w3.org/2000/svg" xmlns:xlink="http://www.w3.org/1999/xlink" width="108.059" height="54.5" viewBox="0 0 108.059 54.5"><defs><linearGradient id="a" x1="0.51" y1="0.685" x2="0.49" y2="0.315" gradientUnits="objectBoundingBox"><stop offset="0" stop-color="#be1c2e"/><stop offset="0.511" stop-color="#be1c2e"/><stop offset="0.549" stop-color="#f95c6d"/><stop offset="1" stop-color="#f95c6d"/></linearGradient></defs><g transform="translate(-84.603 -4.143)"><path d="M-31.021-37.813l-6.151-.214L-38.4-11.713l6.044-.107.214,11.553L-55.73.107l-.16-11.553,5.883-.107,1.284-26.956-6.579-.267.481-11.606,24.282,1.016Zm26.1,40.006A18.946,18.946,0,0,1-13.1.428,19.256,19.256,0,0,1-19.95-4.707a24.2,24.2,0,0,1-4.6-7.862A34.829,34.829,0,0,1-25.966-17.3,42.3,42.3,0,0,1-26.8-22.57a32.672,32.672,0,0,1,1.123-12.569A25.839,25.839,0,0,1-20-45.354,21.148,21.148,0,0,1-13-50.516a20,20,0,0,1,8.344-1.792A13.945,13.945,0,0,1,1.31-50.917a18.68,18.68,0,0,1,5.536,4.065,23.25,23.25,0,0,1,3.316,4.2,31.98,31.98,0,0,1,2.514,5,32.383,32.383,0,0,1,2.086,12.462,38.617,38.617,0,0,1-1.5,10.028A31.1,31.1,0,0,1,9.306-6.525,21.754,21.754,0,0,1,2.781-.08,14.475,14.475,0,0,1-4.921,2.193ZM-4.653-40.7a7.626,7.626,0,0,0-4.092,1.043,13.559,13.559,0,0,0-2.7,2.113,14.663,14.663,0,0,0-3.209,6.07,20.831,20.831,0,0,0-.588,7.782,26.1,26.1,0,0,0,1.364,6.632,15.14,15.14,0,0,0,2.647,4.76A8.119,8.119,0,0,0-4.921-9.413a4.132,4.132,0,0,0,2.086-.856A9.456,9.456,0,0,0-.321-13a19.763,19.763,0,0,0,2.514-5.616A27.883,27.883,0,0,0,3.209-25.4a20.448,20.448,0,0,0-1.15-7.515,16.337,16.337,0,0,0-3.5-5.856,7.87,7.87,0,0,0-1.925-1.5A3.284,3.284,0,0,0-4.653-40.7ZM35.62,2.193a26.2,26.2,0,0,1-6.258-.8Q27.437.909,25.779.321T22.838-.829q-1.284-.562-2.086-.989t-.963-.535l5.776-10v-.053a17.566,17.566,0,0,0,1.578.8q1.043.481,2.353.936t2.754.829a14.645,14.645,0,0,0,2.835.455,7.971,7.971,0,0,0,2.567-.241,3.98,3.98,0,0,0,1.979-1.23,2.983,2.983,0,0,0,.8-3,5.478,5.478,0,0,0-1.658-2.193,8.807,8.807,0,0,0-3.851-1.711q-.267-.053-1.123-.294t-2.113-.7a27.388,27.388,0,0,1-2.728-1.177,26.355,26.355,0,0,1-3-1.738,20.05,20.05,0,0,1-2.915-2.38,15.9,15.9,0,0,1-2.46-3.129A14.962,14.962,0,0,1,19.04-39.364a18.035,18.035,0,0,1,3.717-7.247,13.984,13.984,0,0,1,6.231-4.145,18.3,18.3,0,0,1,10.51-.027A32.5,32.5,0,0,1,50.917-44.82L43.8-35.674a21.3,21.3,0,0,0-6.9-3.8,6.585,6.585,0,0,0-4.225-.267q-.16.053-.455.187a2.306,2.306,0,0,0-.642.481,4.3,4.3,0,0,0-.7.989,7.458,7.458,0,0,0-.615,1.711,4.114,4.114,0,0,0-.214,1.979,3.714,3.714,0,0,0,.428,1.177,5.635,5.635,0,0,0,1.551,1.658A12.712,12.712,0,0,0,34.123-30.3a20.759,20.759,0,0,0,1.979.829,7.967,7.967,0,0,0,1.284.374,20.488,20.488,0,0,1,8.825,4.172,17.062,17.062,0,0,1,3.182,3.45,16.927,16.927,0,0,1,2.059,4.038,14.661,14.661,0,0,1,.7,3.69,12.833,12.833,0,0,1-.321,3.69A14.693,14.693,0,0,1,48.3-3.209,15.234,15.234,0,0,1,43.964.241a16.424,16.424,0,0,1-5.4,1.738q-.749.107-1.471.16T35.62,2.193Z" transform="translate(140.494 56.45)" fill="#fffaf2"/><path d="M109.473,18.637l-6.151-.214-1.23,26.314,6.044-.107.214,11.553-23.586.374L84.6,45l5.883-.107L91.77,17.942l-6.579-.267.481-11.606,24.282,1.016Zm26.1,40.006a18.946,18.946,0,0,1-8.183-1.765,19.256,19.256,0,0,1-6.846-5.134,24.2,24.2,0,0,1-4.6-7.862,34.829,34.829,0,0,1-1.417-4.733,42.3,42.3,0,0,1-.829-5.268,32.672,32.672,0,0,1,1.123-12.569A25.839,25.839,0,0,1,120.491,11.1,21.148,21.148,0,0,1,127.5,5.934a20,20,0,0,1,8.344-1.792A13.945,13.945,0,0,1,141.8,5.533,18.68,18.68,0,0,1,147.34,9.6a23.25,23.25,0,0,1,3.316,4.2,31.981,31.981,0,0,1,2.514,5,32.383,32.383,0,0,1,2.086,12.462,38.617,38.617,0,0,1-1.5,10.028,31.1,31.1,0,0,1-3.958,8.638,21.754,21.754,0,0,1-6.525,6.445A14.475,14.475,0,0,1,135.573,58.643Zm.267-42.894a7.626,7.626,0,0,0-4.092,1.043,13.558,13.558,0,0,0-2.7,2.113,14.663,14.663,0,0,0-3.209,6.07,20.831,20.831,0,0,0-.588,7.782,26.1,26.1,0,0,0,1.364,6.632,15.14,15.14,0,0,0,2.647,4.76,8.119,8.119,0,0,0,6.311,2.888,4.132,4.132,0,0,0,2.086-.856,9.456,9.456,0,0,0,2.514-2.728,19.762,19.762,0,0,0,2.514-5.616,27.883,27.883,0,0,0,1.016-6.792,20.448,20.448,0,0,0-1.15-7.515,16.337,16.337,0,0,0-3.5-5.856,7.87,7.87,0,0,0-1.925-1.5A3.284,3.284,0,0,0,135.841,15.749Zm40.273,42.894a26.2,26.2,0,0,1-6.258-.8q-1.925-.481-3.583-1.07t-2.942-1.15q-1.284-.562-2.086-.989t-.963-.535l5.776-10v-.053a17.568,17.568,0,0,0,1.578.8q1.043.481,2.353.936t2.754.829a14.645,14.645,0,0,0,2.835.455,7.971,7.971,0,0,0,2.567-.241,3.98,3.98,0,0,0,1.979-1.23,2.983,2.983,0,0,0,.8-3A5.478,5.478,0,0,0,179.27,40.4a8.807,8.807,0,0,0-3.851-1.711q-.267-.053-1.123-.294t-2.113-.7a27.388,27.388,0,0,1-2.728-1.177,26.355,26.355,0,0,1-3-1.738,20.05,20.05,0,0,1-2.915-2.38,15.9,15.9,0,0,1-2.46-3.129,14.962,14.962,0,0,1-1.551-12.194,18.035,18.035,0,0,1,3.717-7.247,13.984,13.984,0,0,1,6.231-4.145,18.3,18.3,0,0,1,10.51-.027,32.5,32.5,0,0,1,11.419,5.963L184.3,20.776a21.3,21.3,0,0,0-6.9-3.8,6.585,6.585,0,0,0-4.225-.267q-.16.053-.455.187a2.306,2.306,0,0,0-.642.481,4.3,4.3,0,0,0-.7.989,7.458,7.458,0,0,0-.615,1.711,4.114,4.114,0,0,0-.214,1.979,3.714,3.714,0,0,0,.428,1.177,5.635,5.635,0,0,0,1.551,1.658,12.713,12.713,0,0,0,2.086,1.257,20.761,20.761,0,0,0,1.979.829,7.967,7.967,0,0,0,1.284.374,20.488,20.488,0,0,1,8.825,4.172,16.918,16.918,0,0,1,5.241,7.488,14.661,14.661,0,0,1,.7,3.69,12.832,12.832,0,0,1-.321,3.69,14.693,14.693,0,0,1-3.53,6.846,15.234,15.234,0,0,1-4.332,3.45,16.424,16.424,0,0,1-5.4,1.738q-.749.107-1.471.16T176.114,58.643Z" fill="url(#a)"/></g></svg>