<svg xmlns="http://www.w3.org/2000/svg" width="113.654" height="53.217" viewBox="0 0 113.654 53.217"><g transform="translate(-1.574 -1.015)"><path d="M-26.742-49.58l-.107,11.606-10.536-.107L-36.209-.642l-11.553.374-1.177-37.92-9.2-.053.107-11.606ZM9.52-12.355,10.322-.8-19.9,1.337l-3.209-51.666,33.267,2.086L9.413-36.637-10.75-37.974l.535,8.45,15.885-2.46L7.434-20.538-9.52-17.917l.428,6.9ZM13.638,1.6l3.423-52.04,11.553.749L26.1-11.178l15.617-1.444L42.787-1.07ZM54.768,2.781l-8.611-.8.749-8.237,8.611.8Z" transform="translate(59.711 51.45)" fill="#fff"/></g></svg>